<mxfile host="app.diagrams.net" modified="2023-04-20T13:00:55.183Z" agent="Mozilla/5.0 (Windows NT 10.0; Win64; x64) AppleWebKit/537.36 (KHTML, like Gecko) Chrome/112.0.0.0 Safari/537.36" version="21.1.4" etag="-3yQ9_uvZXkVxPQZLCm4" type="github">
  <diagram name="PÃ¡gina-1" id="ZDR5w2T1DiLIH5Bk0a3Y">
    <mxGraphModel>
      <root>
        <mxCell id="0" />
        <mxCell id="1" parent="0" />
      </root>
    </mxGraphModel>
  </diagram>
</mxfile>
